<svg xmlns="http://www.w3.org/2000/svg" xmlns:xlink="http://www.w3.org/1999/xlink" width="500" zoomAndPan="magnify" viewBox="0 0 375 374.999991" height="500" preserveAspectRatio="xMidYMid meet" version="1.0"><defs><g/></defs><g fill="#000000" fill-opacity="1"><g transform="translate(103.18644, 291.533056)"><g><path d="M 93.703125 -149.8125 C 110.609375 -149.8125 126.132812 -142.3125 140.28125 -127.3125 C 154.425781 -112.3125 161.5 -94.890625 161.5 -75.046875 C 161.5 -55.203125 154.472656 -37.828125 140.421875 -22.921875 C 126.367188 -8.015625 111.269531 -0.5625 95.125 -0.5625 C 78.988281 -0.5625 67.503906 -5.117188 60.671875 -14.234375 C 59.148438 -4.929688 50.984375 -0.28125 36.171875 -0.28125 C 24.210938 -0.28125 16.898438 -2.84375 14.234375 -7.96875 C 12.910156 -10.820312 12.101562 -13.335938 11.8125 -15.515625 C 11.53125 -17.703125 11.390625 -20.976562 11.390625 -25.34375 L 11.390625 -195.390625 C 11.390625 -199.753906 11.53125 -203.03125 11.8125 -205.21875 C 12.101562 -207.40625 12.910156 -209.828125 14.234375 -212.484375 C 16.898438 -217.609375 24.304688 -220.171875 36.453125 -220.171875 C 48.421875 -220.171875 55.640625 -217.609375 58.109375 -212.484375 C 59.628906 -209.628906 60.53125 -207.109375 60.8125 -204.921875 C 61.09375 -202.742188 61.234375 -199.472656 61.234375 -195.109375 L 61.234375 -135.859375 C 68.828125 -145.160156 79.648438 -149.8125 93.703125 -149.8125 Z M 68.78125 -57.8125 C 73.4375 -52.6875 79.273438 -50.125 86.296875 -50.125 C 93.328125 -50.125 99.3125 -52.6875 104.25 -57.8125 C 109.1875 -62.945312 111.65625 -68.644531 111.65625 -74.90625 C 111.65625 -81.175781 109.375 -86.921875 104.8125 -92.140625 C 100.257812 -97.359375 94.179688 -99.96875 86.578125 -99.96875 C 78.984375 -99.96875 72.957031 -97.3125 68.5 -92 C 64.039062 -86.6875 61.8125 -80.941406 61.8125 -74.765625 C 61.8125 -68.597656 64.132812 -62.945312 68.78125 -57.8125 Z M 68.78125 -57.8125 "/></g></g></g></svg>